# xmcd
#
# Track frame offsets: 
#        150
#        13059
#        26209
#        36686
#        57584
#        76307
#        88880
#        104453
#        116276
#        131099
#        147422
#        167795
#        184043
#
# Disc length: 2643 seconds
#
# Revision: 0
# Processed by: cddbd v1.5.2PL0 Copyright (c) Steve Scherf et al.
# Submitted via: ExactAudioCopyFreeDBPlugin 1.0
#
DISCID=bd0a510d
DTITLE=Melody Guy - Old Town Coffee Station Edition #2
DYEAR=2006
DGENRE=Blues
TTITLE0=Rescue Me
TTITLE1=What Else
TTITLE2=Wake Up
TTITLE3=What I Have
TTITLE4=Shadow
TTITLE5=Who Cares
TTITLE6=Swept Away
TTITLE7=Still In Bed
TTITLE8=What Are We Gonna Do Now
TTITLE9=Stars In The After Noon
TTITLE10=To Wait
TTITLE11=Just Around The Corner
TTITLE12=You'll Never Have To Leave
EXTD=
EXTT0=
EXTT1=
EXTT2=
EXTT3=
EXTT4=
EXTT5=
EXTT6=
EXTT7=
EXTT8=
EXTT9=
EXTT10=
EXTT11=
EXTT12=
PLAYORDER=
